<svg width="67" height="54" viewBox="0 0 67 54" fill="none" xmlns="http://www.w3.org/2000/svg">
<rect width="67" height="54" fill="#E5E5E5"/>
<rect width="396" height="260" transform="translate(-165 -84)" fill="#1DA1F2"/>
<path d="M66.9587 6.39959C64.5233 7.47876 61.9071 8.20792 59.1567 8.53751C61.9625 6.85751 64.115 4.19167 65.13 1.01834C62.505 2.57584 59.5971 3.70751 56.5025 4.31417C54.0233 1.67751 50.4942 0.0266724 46.5858 0.0266724C39.0842 0.0266724 33 6.11084 33 13.6183C33 14.68 33.1225 15.7125 33.35 16.71C22.0537 16.1413 12.0467 10.7308 5.34417 2.51167C4.1775 4.52417 3.50667 6.85751 3.50667 9.34251C3.50667 14.0558 5.90708 18.2179 9.55 20.6533C7.32167 20.5804 5.2275 19.9708 3.39583 18.9529V19.1279C3.39583 25.7108 8.07708 31.2029 14.2954 32.4513C13.1521 32.7604 11.9533 32.9238 10.7167 32.9238C9.84167 32.9238 8.98708 32.8421 8.15875 32.6846C9.88833 38.0804 14.905 42.0121 20.8521 42.1171C16.2 45.7629 10.3404 47.9358 3.97625 47.9358C2.87958 47.9358 1.7975 47.8717 0.732918 47.7463C6.74708 51.605 13.8871 53.8508 21.5579 53.8508C46.5537 53.8508 60.2183 33.1483 60.2183 15.1933C60.2183 14.61 60.2037 14.0208 60.1775 13.4375C62.8317 11.5183 65.1358 9.12959 66.9529 6.40834L66.9587 6.39959Z" fill="black"/>
</svg>
